<svg xmlns="http://www.w3.org/2000/svg" xmlns:xlink="http://www.w3.org/1999/xlink" version="1.1" id="Your_Icon" x="0px" y="0px" viewBox="0 0 100 100" enable-background="new 0 0 100 100" xml:space="preserve" height="100px" width="100px">
<path d="M94.071,15.294c-2.313-5.2-8.404-7.539-13.603-5.226c-5.2,2.313-7.539,8.404-5.226,13.603  c0.227,0.509,0.499,0.983,0.794,1.435L48.491,49.476c-1.162-1.009-2.523-1.793-4.023-2.27l1.12-6.317  c1.204-0.068,2.404-0.467,3.451-1.229c2.902-2.112,3.542-6.178,1.43-9.08c-2.112-2.902-6.178-3.542-9.08-1.43  c-2.902,2.112-3.542,6.178-1.43,9.08c0.71,0.975,1.642,1.688,2.675,2.134l-1.123,6.331c-0.166-0.007-0.33-0.025-0.498-0.025  c-2.266,0-4.374,0.671-6.152,1.813L17.081,27.421c0.826-1.012,1.375-2.268,1.513-3.665c0.373-3.777-2.387-7.141-6.164-7.514  c-3.777-0.373-7.141,2.387-7.514,6.164c-0.373,3.777,2.387,7.141,6.164,7.514c1.298,0.128,2.544-0.121,3.639-0.647l17.854,21.148  c-1.847,2.03-2.984,4.718-2.984,7.672c0,0.317,0.022,0.628,0.047,0.938l-11.701,2.543c-0.681-1.295-1.861-2.325-3.374-2.775  c-2.977-0.884-6.107,0.813-6.991,3.79c-0.884,2.977,0.813,6.107,3.79,6.991c2.977,0.884,6.107-0.813,6.991-3.79  c0.127-0.428,0.195-0.858,0.219-1.285l11.707-2.545c0.93,2.571,2.749,4.714,5.094,6.053L30.592,79.8  c-1.879-0.362-3.893-0.042-5.634,1.068c-3.611,2.302-4.673,7.095-2.371,10.706c2.302,3.611,7.095,4.673,10.706,2.371  c3.611-2.302,4.673-7.095,2.371-10.706c-0.61-0.958-1.399-1.73-2.291-2.314l4.779-11.784c0.917,0.238,1.872,0.377,2.862,0.377  c3.53,0,6.69-1.61,8.787-4.133l11.525,7.239c-1.075,2.427-1.234,5.262-0.218,7.94c2.048,5.399,8.085,8.116,13.484,6.068  c5.399-2.048,8.116-8.085,6.068-13.484c-2.048-5.399-8.085-8.116-13.484-6.068c-1.711,0.649-3.149,1.7-4.255,3.002l-11.528-7.241  c0.665-1.448,1.046-3.053,1.046-4.748c0-2.361-0.72-4.556-1.951-6.379l27.535-24.36c2.923,2.459,7.098,3.2,10.822,1.543  C94.045,26.584,96.384,20.494,94.071,15.294z M41.014,66.519c-4.646,0-8.425-3.779-8.425-8.425s3.779-8.424,8.425-8.424  s8.425,3.779,8.425,8.424S45.659,66.519,41.014,66.519z"/>
</svg>